# xmcd CD database file
#
# Track frame offsets:
#	150
#	26044
#	51038
#	97889
#	139642
#
# Disc length: 2755 seconds
#
# Revision: 0
# Processed by: cddbd v1.4PL0 Copyright (c) Steve Scherf et al.
# Submitted via: CDex 1.50
#
DISCID=370ac105
DTITLE=Test Type Trio - Crack the Bends
DYEAR=2003
DGENRE=Jazz
TTITLE0=Vitamin Shampoo $1.77 More
TTITLE1=Go Outside and Shut the Door
TTITLE2=Quintessential Trees
TTITLE3=Wading Pool (this song has hand motions)
TTITLE4=Crack the Bends
EXTD=YEAR: 2003
EXTT0=
EXTT1=
EXTT2=
EXTT3=
EXTT4=
PLAYORDER=
